<svg version="1.1" xmlns="http://www.w3.org/2000/svg" xmlns:xlink="http://www.w3.org/1999/xlink" width="383" height="284"><defs><linearGradient id="BtecqHexxDbO" x1="300px" x2="300px" y1="339px" y2="589.2000007152558px" gradientUnits="userSpaceOnUse"><stop offset="0" stop-color="rgb(211,211,211)" stop-opacity="1"/><stop offset="1" stop-color="rgb(211,211,211)" stop-opacity="1"/></linearGradient><linearGradient id="ndLeRPZmCmeT" x1="300px" x2="1098.2000007152558px" y1="339px" y2="586.7000007152558px" gradientUnits="userSpaceOnUse"><stop offset="0" stop-color="rgb(211,211,211)" stop-opacity="1"/><stop offset="1" stop-color="rgb(29,122,218)" stop-opacity="1"/></linearGradient><linearGradient id="mawnFcCWwimH" x1="300px" x2="1098.2000007152558px" y1="339px" y2="852.7000021457673px" gradientUnits="userSpaceOnUse"><stop offset="0" stop-color="rgb(211,211,211)" stop-opacity="1"/><stop offset="1" stop-color="rgb(29,122,218)" stop-opacity="1"/></linearGradient><linearGradient id="mOZVOIAzBlGE" x1="1098.2000007152558px" x2="300px" y1="339px" y2="589.2000007152558px" gradientUnits="userSpaceOnUse"><stop offset="0" stop-color="rgb(211,211,211)" stop-opacity="1"/><stop offset="1" stop-color="rgb(211,211,211)" stop-opacity="1"/></linearGradient><linearGradient id="sJefTrBTtUhJ" x1="1098.2000007152558px" x2="1098.2000007152558px" y1="339px" y2="985.700002861023px" gradientUnits="userSpaceOnUse"><stop offset="0" stop-color="rgb(211,211,211)" stop-opacity="1"/><stop offset="1" stop-color="rgb(29,122,218)" stop-opacity="1"/></linearGradient><linearGradient id="WMySOIQnvHMp" x1="574px" x2="821.7000007152558px" y1="628.2000007152558px" y2="761.2000014305115px" gradientUnits="userSpaceOnUse"><stop offset="0" stop-color="rgb(211,211,211)" stop-opacity="1"/><stop offset="1" stop-color="rgb(29,122,218)" stop-opacity="1"/></linearGradient><linearGradient id="zCQonZErLSvt" x1="574px" x2="821.7000007152558px" y1="628.2000007152558px" y2="628.2000007152558px" gradientUnits="userSpaceOnUse"><stop offset="0" stop-color="rgb(211,211,211)" stop-opacity="1"/><stop offset="1" stop-color="rgb(29,122,218)" stop-opacity="1"/></linearGradient></defs><g transform="translate(47.1,9.200000000000001) scale(0.2,0.2)"><path fill="rgb(244,236,255)" stroke="rgb(255,255,255)" paint-order="fill stroke markers" d=" M 721.8500003576279 -44 L 1669.2000007152558 -44 L 1669.2000007152558 -44 A 8 8 0 0 1 1677.2000007152558 -36 L 1677.2000007152558 1363.200002861023 L 1677.2000007152558 1363.200002861023 A 8 8 0 0 1 1669.2000007152558 1371.200002861023 L -225.5 1371.200002861023 L -225.5 1371.200002861023 A 8 8 0 0 1 -233.5 1363.200002861023 L -233.5 -36 L -233.5 -36 A 8 8 0 0 1 -225.5 -44 L 721.8500003576279 -44 Z" fill-opacity="1" stroke-opacity="1" stroke-miterlimit="10" stroke-width="2"/><text fill="rgb(0,0,0)" stroke="none" font-family="Avenir, Helvetica, Arial, sans-serif" font-size="32px" font-style="normal" font-weight="bold" text-decoration="normal" x="721.8500003576279" y="31" text-anchor="middle" dominant-baseline="text-after-edge" fill-opacity="1">.</text><path fill="rgb(255,255,255)" stroke="rgb(211,211,211)" paint-order="fill stroke markers" d=" M 1098.2000007152558 485.7000007152558 L 1467.7000007152558 485.7000007152558 L 1467.7000007152558 485.7000007152558 A 8 8 0 0 1 1475.7000007152558 493.7000007152558 L 1475.7000007152558 1161.700002861023 L 1475.7000007152558 1161.700002861023 A 8 8 0 0 1 1467.7000007152558 1169.700002861023 L 728.7000007152558 1169.700002861023 L 728.7000007152558 1169.700002861023 A 8 8 0 0 1 720.7000007152558 1161.700002861023 L 720.7000007152558 493.7000007152558 L 720.7000007152558 493.7000007152558 A 8 8 0 0 1 728.7000007152558 485.7000007152558 L 1098.2000007152558 485.7000007152558 Z" fill-opacity="1" stroke-opacity="1" stroke-miterlimit="10"/><text fill="rgb(0,0,0)" stroke="none" font-family="Avenir, Helvetica, Arial, sans-serif" font-size="32px" font-style="normal" font-weight="bold" text-decoration="normal" x="1098.2000007152558" y="560.7000007152558" text-anchor="middle" dominant-baseline="text-after-edge" fill-opacity="1">variables.tf</text><path fill="rgb(255,255,255)" stroke="rgb(0,0,0)" paint-order="fill stroke markers" d=" M 300 205 L 622 205 L 622 205 A 8 8 0 0 1 630 213 L 630 387 L 630 387 A 8 8 0 0 1 622 395 L -22 395 L -22 395 A 8 8 0 0 1 -30 387 L -30 213 L -30 213 A 8 8 0 0 1 -22 205 L 300 205 Z" fill-opacity="1" stroke-opacity="1" stroke-miterlimit="10" stroke-width="5"/><rect fill="rgb(255,255,255)" stroke="none" x="51" y="156" width="498" height="96" fill-opacity="1"/><text fill="rgb(0,0,0)" stroke="none" font-family="Avenir, Helvetica, Arial, sans-serif" font-size="32px" font-style="normal" font-weight="bold" text-decoration="normal" x="300" y="220" text-anchor="middle" dominant-baseline="text-after-edge" fill-opacity="1">aws_iam_group_membership</text><path fill="rgb(255,255,255)" stroke="rgb(0,0,0)" paint-order="fill stroke markers" d=" M 1098.2000007152558 205 L 1420.2000007152558 205 L 1420.2000007152558 205 A 8 8 0 0 1 1428.2000007152558 213 L 1428.2000007152558 387 L 1428.2000007152558 387 A 8 8 0 0 1 1420.2000007152558 395 L 776.2000007152558 395 L 776.2000007152558 395 A 8 8 0 0 1 768.2000007152558 387 L 768.2000007152558 213 L 768.2000007152558 213 A 8 8 0 0 1 776.2000007152558 205 L 1098.2000007152558 205 Z" fill-opacity="1" stroke-opacity="1" stroke-miterlimit="10" stroke-width="5"/><rect fill="rgb(255,255,255)" stroke="none" x="804.7000007152558" y="156" width="587" height="96" fill-opacity="1"/><text fill="rgb(0,0,0)" stroke="none" font-family="Avenir, Helvetica, Arial, sans-serif" font-size="32px" font-style="normal" font-weight="bold" text-decoration="normal" x="1098.2000007152558" y="220" text-anchor="middle" dominant-baseline="text-after-edge" fill-opacity="1">aws_iam_group_policy_attachment</text><path fill="rgb(255,255,255)" stroke="rgb(0,0,0)" paint-order="fill stroke markers" d=" M 300 533.2000007152558 L 622 533.2000007152558 L 622 533.2000007152558 A 8 8 0 0 1 630 541.2000007152558 L 630 715.2000007152558 L 630 715.2000007152558 A 8 8 0 0 1 622 723.2000007152558 L -22 723.2000007152558 L -22 723.2000007152558 A 8 8 0 0 1 -30 715.2000007152558 L -30 541.2000007152558 L -30 541.2000007152558 A 8 8 0 0 1 -22 533.2000007152558 L 300 533.2000007152558 Z" fill-opacity="1" stroke-opacity="1" stroke-miterlimit="10" stroke-width="5"/><rect fill="rgb(255,255,255)" stroke="none" x="152" y="484.2000007152558" width="296" height="96" fill-opacity="1"/><text fill="rgb(0,0,0)" stroke="none" font-family="Avenir, Helvetica, Arial, sans-serif" font-size="32px" font-style="normal" font-weight="bold" text-decoration="normal" x="300" y="548.2000007152558" text-anchor="middle" dominant-baseline="text-after-edge" fill-opacity="1">aws_iam_group</text><path fill="none" stroke="url(#BtecqHexxDbO)" paint-order="fill stroke markers" d=" M 300 339 L 300 464.1000003576279 L 300 464.1000003576279 L 300 589.2000007152558" stroke-linejoin="round" stroke-miterlimit="10" stroke-width="10"/><path fill="none" stroke="url(#ndLeRPZmCmeT)" paint-order="fill stroke markers" d=" M 300 339 L 300 462.8500003576279 L 1098.2000007152558 462.8500003576279 L 1098.2000007152558 586.7000007152558" stroke-linejoin="round" stroke-miterlimit="10" stroke-width="10"/><path fill="none" stroke="url(#mawnFcCWwimH)" paint-order="fill stroke markers" d=" M 300 339 L 300 595.8500010728836 L 1098.2000007152558 595.8500010728836 L 1098.2000007152558 852.7000021457673" stroke-linejoin="round" stroke-miterlimit="10" stroke-width="10"/><path fill="none" stroke="url(#mOZVOIAzBlGE)" paint-order="fill stroke markers" d=" M 1098.2000007152558 339 L 1098.2000007152558 464.1000003576279 L 300 464.1000003576279 L 300 589.2000007152558" stroke-linejoin="round" stroke-miterlimit="10" stroke-width="10"/><path fill="none" stroke="url(#sJefTrBTtUhJ)" paint-order="fill stroke markers" d=" M 1098.2000007152558 339 L 1098.2000007152558 662.3500014305115 L 1098.2000007152558 662.3500014305115 L 1098.2000007152558 985.700002861023" stroke-linejoin="round" stroke-miterlimit="10" stroke-width="10"/><path fill="none" stroke="url(#WMySOIQnvHMp)" paint-order="fill stroke markers" d=" M 574 628.2000007152558 L 697.8500003576279 628.2000007152558 L 697.8500003576279 761.2000014305115 L 821.7000007152558 761.2000014305115" stroke-linejoin="round" stroke-miterlimit="10" stroke-width="10"/><path fill="none" stroke="url(#zCQonZErLSvt)" paint-order="fill stroke markers" d=" M 574 628.2000007152558 L 697.8500003576279 628.2000007152558 L 697.8500003576279 628.2000007152558 L 821.7000007152558 628.2000007152558" stroke-linejoin="round" stroke-miterlimit="10" stroke-width="10"/><path fill="rgb(225,240,255)" stroke="rgb(29,122,218)" paint-order="fill stroke markers" d=" M 1098.2000007152558 589.2000007152558 L 1364.2000007152558 589.2000007152558 L 1364.2000007152558 589.2000007152558 A 8 8 0 0 1 1372.2000007152558 597.2000007152558 L 1372.2000007152558 659.2000007152558 L 1372.2000007152558 659.2000007152558 A 8 8 0 0 1 1364.2000007152558 667.2000007152558 L 832.2000007152558 667.2000007152558 L 832.2000007152558 667.2000007152558 A 8 8 0 0 1 824.2000007152558 659.2000007152558 L 824.2000007152558 597.2000007152558 L 824.2000007152558 597.2000007152558 A 8 8 0 0 1 832.2000007152558 589.2000007152558 L 1098.2000007152558 589.2000007152558 Z" fill-opacity="1" stroke-opacity="1" stroke-miterlimit="10" stroke-width="5"/><text fill="rgb(0,0,0)" stroke="none" font-family="Avenir, Helvetica, Arial, sans-serif" font-size="32px" font-style="normal" font-weight="bold" text-decoration="normal" x="1098.2000007152558" y="644.2000007152558" text-anchor="middle" dominant-baseline="text-after-edge" fill-opacity="1">name</text><path fill="rgb(225,240,255)" stroke="rgb(29,122,218)" paint-order="fill stroke markers" d=" M 1098.2000007152558 722.2000014305115 L 1364.2000007152558 722.2000014305115 L 1364.2000007152558 722.2000014305115 A 8 8 0 0 1 1372.2000007152558 730.2000014305115 L 1372.2000007152558 792.2000014305115 L 1372.2000007152558 792.2000014305115 A 8 8 0 0 1 1364.2000007152558 800.2000014305115 L 832.2000007152558 800.2000014305115 L 832.2000007152558 800.2000014305115 A 8 8 0 0 1 824.2000007152558 792.2000014305115 L 824.2000007152558 730.2000014305115 L 824.2000007152558 730.2000014305115 A 8 8 0 0 1 832.2000007152558 722.2000014305115 L 1098.2000007152558 722.2000014305115 Z" fill-opacity="1" stroke-opacity="1" stroke-miterlimit="10" stroke-width="5"/><text fill="rgb(0,0,0)" stroke="none" font-family="Avenir, Helvetica, Arial, sans-serif" font-size="32px" font-style="normal" font-weight="bold" text-decoration="normal" x="1098.2000007152558" y="777.2000014305115" text-anchor="middle" dominant-baseline="text-after-edge" fill-opacity="1">path</text><path fill="rgb(225,240,255)" stroke="rgb(29,122,218)" paint-order="fill stroke markers" d=" M 1098.2000007152558 855.2000021457673 L 1364.2000007152558 855.2000021457673 L 1364.2000007152558 855.2000021457673 A 8 8 0 0 1 1372.2000007152558 863.2000021457673 L 1372.2000007152558 925.2000021457673 L 1372.2000007152558 925.2000021457673 A 8 8 0 0 1 1364.2000007152558 933.2000021457673 L 832.2000007152558 933.2000021457673 L 832.2000007152558 933.2000021457673 A 8 8 0 0 1 824.2000007152558 925.2000021457673 L 824.2000007152558 863.2000021457673 L 824.2000007152558 863.2000021457673 A 8 8 0 0 1 832.2000007152558 855.2000021457673 L 1098.2000007152558 855.2000021457673 Z" fill-opacity="1" stroke-opacity="1" stroke-miterlimit="10" stroke-width="5"/><text fill="rgb(0,0,0)" stroke="none" font-family="Avenir, Helvetica, Arial, sans-serif" font-size="32px" font-style="normal" font-weight="bold" text-decoration="normal" x="1098.2000007152558" y="910.2000021457673" text-anchor="middle" dominant-baseline="text-after-edge" fill-opacity="1">users</text><path fill="rgb(225,240,255)" stroke="rgb(29,122,218)" paint-order="fill stroke markers" d=" M 1098.2000007152558 988.200002861023 L 1364.2000007152558 988.200002861023 L 1364.2000007152558 988.200002861023 A 8 8 0 0 1 1372.2000007152558 996.200002861023 L 1372.2000007152558 1058.200002861023 L 1372.2000007152558 1058.200002861023 A 8 8 0 0 1 1364.2000007152558 1066.200002861023 L 832.2000007152558 1066.200002861023 L 832.2000007152558 1066.200002861023 A 8 8 0 0 1 824.2000007152558 1058.200002861023 L 824.2000007152558 996.200002861023 L 824.2000007152558 996.200002861023 A 8 8 0 0 1 832.2000007152558 988.200002861023 L 1098.2000007152558 988.200002861023 Z" fill-opacity="1" stroke-opacity="1" stroke-miterlimit="10" stroke-width="5"/><text fill="rgb(0,0,0)" stroke="none" font-family="Avenir, Helvetica, Arial, sans-serif" font-size="32px" font-style="normal" font-weight="bold" text-decoration="normal" x="1098.2000007152558" y="1043.200002861023" text-anchor="middle" dominant-baseline="text-after-edge" fill-opacity="1">policy_arn</text><path fill="rgb(40,167,69)" stroke="none" paint-order="stroke fill markers" d=" M 300 261 L 566 261 L 566 261 A 8 8 0 0 1 574 269 L 574 331 L 574 331 A 8 8 0 0 1 566 339 L 34 339 L 34 339 A 8 8 0 0 1 26 331 L 26 269 L 26 269 A 8 8 0 0 1 34 261 L 300 261 Z" fill-opacity="1"/><text fill="rgb(255,255,255)" stroke="none" font-family="Avenir, Helvetica, Arial, sans-serif" font-size="32px" font-style="normal" font-weight="bold" text-decoration="normal" x="300" y="316" text-anchor="middle" dominant-baseline="text-after-edge" fill-opacity="1">default</text><path fill="rgb(40,167,69)" stroke="none" paint-order="stroke fill markers" d=" M 1098.2000007152558 261 L 1364.2000007152558 261 L 1364.2000007152558 261 A 8 8 0 0 1 1372.2000007152558 269 L 1372.2000007152558 331 L 1372.2000007152558 331 A 8 8 0 0 1 1364.2000007152558 339 L 832.2000007152558 339 L 832.2000007152558 339 A 8 8 0 0 1 824.2000007152558 331 L 824.2000007152558 269 L 824.2000007152558 269 A 8 8 0 0 1 832.2000007152558 261 L 1098.2000007152558 261 Z" fill-opacity="1"/><text fill="rgb(255,255,255)" stroke="none" font-family="Avenir, Helvetica, Arial, sans-serif" font-size="32px" font-style="normal" font-weight="bold" text-decoration="normal" x="1098.2000007152558" y="316" text-anchor="middle" dominant-baseline="text-after-edge" fill-opacity="1">default</text><path fill="rgb(40,167,69)" stroke="none" paint-order="stroke fill markers" d=" M 300 589.2000007152558 L 566 589.2000007152558 L 566 589.2000007152558 A 8 8 0 0 1 574 597.2000007152558 L 574 659.2000007152558 L 574 659.2000007152558 A 8 8 0 0 1 566 667.2000007152558 L 34 667.2000007152558 L 34 667.2000007152558 A 8 8 0 0 1 26 659.2000007152558 L 26 597.2000007152558 L 26 597.2000007152558 A 8 8 0 0 1 34 589.2000007152558 L 300 589.2000007152558 Z" fill-opacity="1"/><text fill="rgb(255,255,255)" stroke="none" font-family="Avenir, Helvetica, Arial, sans-serif" font-size="32px" font-style="normal" font-weight="bold" text-decoration="normal" x="300" y="644.2000007152558" text-anchor="middle" dominant-baseline="text-after-edge" fill-opacity="1">default</text><g transform="scale(5,5) translate(-47.1,-9.200000000000001)"/></g></svg>